<?xml version="1.0" encoding="UTF-8"?><svg id="a" xmlns="http://www.w3.org/2000/svg" xmlns:xlink="http://www.w3.org/1999/xlink" viewBox="0 0 299.4 463.2"><defs><style>.d{fill:url(#c);}.e{fill:url(#b);}.f{fill:#d925d2;}.g{fill:#a937f3;}.h{fill:#bf31ff;}.i{fill:#be18b6;}</style><linearGradient id="b" x1="110.57" y1="109.5" x2="243.99" y2="109.5" gradientTransform="matrix(1, 0, 0, 1, 0, 0)" gradientUnits="userSpaceOnUse"><stop offset="0" stop-color="#a404fe"/><stop offset=".18" stop-color="#a104fa"/><stop offset=".33" stop-color="#9a04f0"/><stop offset=".47" stop-color="#8d04df"/><stop offset=".6" stop-color="#7b04c7"/><stop offset=".73" stop-color="#6405a7"/><stop offset=".85" stop-color="#480681"/><stop offset=".97" stop-color="#270655"/><stop offset="1" stop-color="#1f0749"/></linearGradient><linearGradient id="c" x1="55.41" y1="353.7" x2="188.82" y2="353.7" gradientTransform="matrix(1, 0, 0, 1, 0, 0)" gradientUnits="userSpaceOnUse"><stop offset="0" stop-color="#1c003a"/><stop offset=".19" stop-color="#561263"/><stop offset=".4" stop-color="#8e238a"/><stop offset=".59" stop-color="#b930a9"/><stop offset=".76" stop-color="#d93abf"/><stop offset=".9" stop-color="#ec3fcd"/><stop offset="1" stop-color="#f342d2"/></linearGradient></defs><path class="e" d="M110.57,0l113.87,219.01,6.83-18.08c17.87-34.44,13.15-69.09,8.23-89.77l-5.42-25.91-31.78-65.43c-5.63-11.59-17.33-19-30.21-19.15l-61.52-.67Z"/><path class="g" d="M204.9,25.16l16.84,34.94c11.28,23.66,18.05,50.81,18.89,77.23,.87,27.55-5.96,53.51-16.19,78.86-1,2.48-57.68,117.14-57.68,117.14h62.06c11.96,0,23.4-5.66,28.64-16.42l36.97-75.9c6.97-14.31,6.59-31.1-1.01-45.08L204.9,25.16Z"/><path class="d" d="M188.82,463.2L74.95,244.19l-6.83,18.08c-17.87,34.44-13.15,69.09-8.23,89.77l5.42,25.91,31.78,65.43c5.63,11.59,17.33,19,30.21,19.15l61.52,.67Z"/><path class="i" d="M94.5,438.04l-16.84-34.94c-11.28-23.66-18.05-50.81-18.89-77.23-.87-27.55,5.96-53.51,16.19-78.86,1-2.48,57.68-117.14,57.68-117.14h-62.06c-11.96,0-23.4,5.66-28.64,16.42L4.97,222.18c-6.97,14.31-6.59,31.1,1.01,45.08l88.52,170.79Z"/><path class="h" d="M204.93,25.16l16.84,34.94c11.28,23.66,18.05,50.81,18.89,77.23,.87,27.55-5.96,53.51-16.19,78.86-1,2.48-57.68,117.14-57.68,117.14h27.76s91.7-151.23,66.21-200.46L204.93,25.16Z"/><path class="f" d="M94.5,438.04l-16.84-34.94c-11.28-23.66-18.05-50.81-18.89-77.23-.87-27.55,5.96-53.51,16.19-78.86,1-2.48,57.68-117.14,57.68-117.14h-27.76S13.18,281.09,38.67,330.32l55.83,107.72Z"/></svg>